<?xml version="1.0" standalone="no"?>
<!DOCTYPE svg PUBLIC "-//W3C//DTD SVG 20010904//EN"
 "http://www.w3.org/TR/2001/REC-SVG-20010904/DTD/svg10.dtd">
<svg version="1.0" xmlns="http://www.w3.org/2000/svg"
 width="225.000000pt" height="225.000000pt" viewBox="0 0 225.000000 225.000000"
 preserveAspectRatio="xMidYMid meet">
<metadata>
Created by potrace 1.14, written by Peter Selinger 2001-2017
</metadata>
<g transform="translate(0.000000,225.000000) scale(0.100000,-0.100000)"
fill="#000000" stroke="none">
<path d="M875 1720 c-167 -25 -329 -96 -416 -184 -25 -25 -27 -25 -58 -10 -27
14 -43 14 -99 6 l-67 -11 70 5 c59 4 75 1 104 -16 43 -27 36 -33 -21 -15 -25
7 -48 11 -51 9 -6 -6 -127 -13 -127 -7 0 2 5 14 11 26 11 20 9 20 -13 -3 -14
-14 -45 -43 -70 -65 -43 -39 -44 -41 -35 -79 8 -29 6 -50 -7 -92 -15 -48 -15
-56 -2 -81 23 -44 82 -102 110 -109 23 -6 26 -11 26 -53 0 -32 -11 -66 -35
-115 -27 -52 -35 -81 -35 -121 0 -63 7 -85 26 -85 8 0 14 -5 14 -12 0 -7 -25
-107 -57 -223 -50 -186 -56 -221 -56 -305 0 -95 17 -170 41 -178 8 -2 7 8 -3
32 -23 55 -29 146 -15 236 7 44 15 79 17 76 3 -3 0 -37 -7 -76 -12 -72 -4
-157 21 -237 16 -50 44 -44 58 12 11 43 13 45 34 34 l22 -11 -21 21 -21 22 24
87 c13 48 28 139 34 202 6 63 12 116 14 118 2 2 10 -31 20 -73 9 -42 19 -74
22 -72 6 7 -12 98 -43 215 -22 84 -24 98 -13 151 7 33 20 70 30 82 16 22 17
18 18 -102 2 -134 11 -205 43 -314 31 -106 31 -113 14 -244 -21 -164 -21 -161
10 -159 l27 3 -6 85 c-3 50 -1 76 4 63 4 -12 9 -51 10 -87 2 -55 5 -64 20 -63
13 1 17 7 13 27 -9 53 -21 227 -18 270 3 35 1 40 -5 20 -8 -23 -9 -23 -10 -4
-1 12 6 41 14 64 17 48 20 90 3 50 -5 -14 -14 -33 -19 -42 -5 -10 -9 -26 -10
-35 -1 -28 -18 20 -41 112 -18 74 -39 216 -32 223 1 2 12 -19 24 -47 12 -28
28 -55 36 -61 7 -6 10 -18 7 -26 -4 -11 0 -15 13 -12 11 2 18 -2 17 -9 -2 -7
10 -20 26 -29 28 -17 40 -47 46 -126 5 -51 16 -99 23 -94 4 2 8 -17 8 -42 1
-25 7 -48 13 -50 7 -2 8 -14 5 -29 -5 -18 -3 -24 5 -19 6 4 11 1 11 -9 0 -10
5 -13 12 -9 7 4 8 3 4 -5 -4 -6 -12 -9 -17 -6 -5 4 -9 -1 -9 -10 0 -8 7 -18
15 -21 9 -4 13 -18 12 -42 -2 -34 0 -36 32 -39 23 -2 32 1 28 10 -33 88 -105
329 -127 427 -43 188 -53 279 -53 455 1 190 12 276 47 349 14 30 27 72 29 94
2 21 8 45 12 52 5 9 4 11 -3 6 -23 -14 -11 2 35 48 26 26 62 54 80 61 18 8 49
26 68 41 31 23 144 70 230 94 17 4 76 11 132 14 82 6 108 4 132 -8 16 -9 37
-13 45 -10 9 3 47 -4 86 -15 160 -49 299 -167 369 -313 23 -48 44 -101 47
-118 l7 -30 -29 15 c-16 8 -39 15 -52 15 -20 0 -22 -4 -16 -22 12 -41 44 -97
65 -117 21 -19 21 -21 5 -61 -20 -51 -22 -140 -2 -140 7 0 25 11 39 25 l25 26
7 -157 c8 -168 0 -671 -11 -716 -4 -17 -2 -28 4 -28 19 0 26 92 27 362 0 146
1 266 1 265 9 -9 66 -251 75 -316 11 -79 8 -218 -7 -286 -5 -21 -3 -27 4 -20
6 6 16 50 21 99 14 124 25 122 18 -4 -5 -79 -4 -100 4 -86 24 39 4 237 -46
461 -73 330 -86 410 -79 490 5 64 2 81 -35 194 -23 69 -57 156 -76 194 -19 38
-35 75 -35 82 0 25 -112 144 -146 155 -17 6 -40 20 -49 30 -10 11 -41 27 -68
35 -27 8 -55 20 -63 26 -7 5 -43 15 -81 20 -37 6 -95 15 -128 20 -70 10 -208
10 -280 -1z m189 -15 c-17 -13 -16 -14 14 -4 18 6 51 8 75 5 23 -3 71 -8 107
-11 36 -3 81 -14 100 -24 20 -10 50 -22 68 -26 18 -3 45 -17 60 -30 15 -13 42
-29 58 -37 33 -14 134 -120 134 -140 0 -7 -7 -3 -15 9 -25 35 -135 114 -212
150 -39 19 -106 40 -150 48 -43 8 -93 19 -110 25 -24 9 -41 9 -64 1 -18 -6
-56 -11 -85 -11 -73 0 -269 -66 -320 -108 -20 -17 -50 -34 -66 -37 -15 -4 -50
-29 -77 -57 l-48 -51 -22 22 c-20 20 -20 23 -6 51 16 32 51 60 74 60 8 0 31
16 51 35 25 24 50 37 83 44 26 5 56 16 67 26 10 9 45 20 77 24 32 4 67 13 78
20 l20 13 -20 -7 c-11 -4 -44 -8 -72 -10 -39 -2 -62 -9 -87 -29 -19 -14 -46
-26 -61 -26 -34 0 -80 -24 -99 -52 -9 -13 -33 -27 -54 -33 -26 -7 -44 -22 -61
-48 -19 -29 -27 -34 -38 -26 -20 17 -16 32 20 66 48 47 162 110 252 140 66 22
99 26 192 27 62 0 107 4 100 8 -7 4 3 8 22 8 33 0 34 -1 15 -15z m-731 -235
c-64 -28 -97 -31 -111 -10 -10 16 -8 19 18 25 16 3 38 2 49 -4 24 -13 34 -14
26 -2 -6 11 23 20 43 13 7 -3 -4 -12 -25 -22z m-143 0 c0 -6 -7 -13 -15 -17
-9 -3 -22 -21 -30 -39 -15 -36 -35 -46 -35 -18 0 9 15 32 33 50 33 34 47 41
47 24z m261 -10 c42 -22 79 -71 79 -105 0 -39 -45 -147 -78 -186 -45 -52 -73
-52 -108 1 -24 37 -26 45 -19 98 10 72 10 131 1 158 -6 18 -2 24 31 37 49 20
47 21 94 -3z m-207 -56 c16 -35 16 -36 -1 -29 -40 17 -53 17 -59 1 -9 -23 -24
-9 -24 23 0 34 6 41 40 41 20 0 30 -8 44 -36z m71 12 c24 -35 11 -112 -18
-120 -34 -9 -35 -8 -30 32 3 25 -1 50 -11 69 -8 17 -12 33 -9 37 15 15 54 4
68 -18z m-154 -95 c-5 -4 -13 -19 -17 -35 -5 -20 -9 -24 -15 -14 -12 19 -11
76 2 100 11 20 12 20 25 -12 9 -20 11 -36 5 -39z m99 16 c0 -41 -14 -52 -49
-37 -32 13 -38 29 -21 60 9 16 15 17 40 8 21 -7 30 -16 30 -31z m14 -58 l36 9
0 -45 c0 -37 -3 -44 -16 -39 -9 3 -42 6 -75 6 -67 0 -75 8 -65 65 l7 34 39
-20 c32 -17 45 -19 74 -10z m-134 -51 c0 -4 -7 -5 -15 -2 -9 4 -15 0 -15 -8 0
-15 16 -18 113 -17 66 0 70 -1 104 -37 19 -20 31 -40 26 -45 -5 -5 -33 -11
-64 -15 -71 -8 -122 14 -148 63 -9 19 -22 33 -27 31 -5 -1 -10 17 -12 42 l-2
45 20 -25 c11 -14 20 -28 20 -32z m1623 -78 c26 -16 47 -36 47 -44 0 -11 -8
-8 -26 9 -15 14 -32 25 -38 25 -11 -1 32 -42 59 -57 17 -10 31 -90 21 -127 -7
-27 -52 -86 -67 -86 -14 0 -11 53 7 108 16 50 16 50 -9 84 -13 18 -34 52 -46
76 -26 52 -15 54 52 12z m-1308 -108 c-5 -36 -9 -41 -21 -31 -19 16 -18 0 2
-22 10 -11 14 -31 12 -56 l-3 -38 -14 44 c-7 25 -14 54 -15 66 -1 12 -12 39
-24 59 -27 46 -27 46 1 46 13 0 32 10 43 21 l19 21 3 -33 c2 -18 1 -53 -3 -77z
m-155 45 c0 -2 -11 -18 -25 -37 l-25 -34 0 31 c0 22 6 33 18 36 24 7 32 7 32
4z m-1 -137 c-16 -74 -36 -141 -44 -149 -13 -14 -15 -6 -15 74 0 87 1 90 41
152 23 35 43 62 44 61 2 -2 -10 -64 -26 -138z m48 88 c-3 -8 -6 -5 -6 6 -1 11
2 17 5 13 3 -3 4 -12 1 -19z m58 -87 c9 -35 14 -65 12 -67 -8 -8 -57 143 -57
171 1 22 29 -44 45 -104z m14 -128 c10 -36 -1 -42 -32 -19 -19 15 -37 100 -37
176 0 45 1 44 31 -40 16 -47 34 -100 38 -117z m-204 -30 c-7 -60 -20 -69 -29
-20 -5 30 1 65 21 127 7 23 8 21 11 -15 2 -22 1 -64 -3 -92z m134 49 c0 -13
-3 -20 -9 -17 -5 3 -9 27 -9 53 1 42 2 44 9 17 4 -16 8 -40 9 -53z m36 -59
c21 -10 35 -24 35 -35 0 -21 -4 -22 -33 -6 -23 12 -46 37 -47 51 0 10 5 9 45
-10z m1462 -55 c-3 -8 -6 -5 -6 6 -1 11 2 17 5 13 3 -3 4 -12 1 -19z m-1383
-88 c8 -52 14 -96 12 -98 -10 -10 -82 70 -102 113 -33 70 -32 76 13 62 31 -10
38 -9 47 5 6 10 11 16 13 15 1 -1 9 -45 17 -97z m-224 68 c0 -26 -61 -241 -66
-235 -2 2 7 59 21 127 14 67 25 124 25 126 0 2 5 4 10 4 6 0 10 -10 10 -22z
m1617 -40 c-3 -8 -6 -5 -6 6 -1 11 2 17 5 13 3 -3 4 -12 1 -19z m-1598 -206
c-9 -121 -28 -233 -51 -301 l-11 -35 -23 45 c-33 63 -30 107 21 286 58 200 56
195 66 158 5 -16 4 -83 -2 -153z m1608 156 c-3 -8 -6 -5 -6 6 -1 11 2 17 5 13
3 -3 4 -12 1 -19z m80 -390 c-2 -13 -4 -5 -4 17 -1 22 1 32 4 23 2 -10 2 -28
0 -40z m-1540 -25 c-3 -10 -5 -2 -5 17 0 19 2 27 5 18 2 -10 2 -26 0 -35z
m-230 -75 c11 -12 13 -28 8 -62 -4 -25 -11 -46 -14 -46 -9 0 -41 128 -41 161
1 23 2 22 17 -6 8 -16 22 -37 30 -47z m260 -60 c-3 -8 -6 -5 -6 6 -1 11 2 17
5 13 3 -3 4 -12 1 -19z"/>
<path d="M1797 961 c-20 -33 -22 -45 -6 -36 11 7 32 55 26 61 -2 2 -11 -10
-20 -25z"/>
<path d="M1360 1555 c0 -4 12 -23 26 -42 58 -76 118 -252 81 -237 -8 3 -20 22
-26 42 l-10 37 5 -37 c9 -67 -20 -45 -45 33 -12 39 -25 69 -27 66 -3 -2 0 -16
6 -31 38 -101 55 -342 26 -372 -18 -17 -58 -18 -74 -2 -9 9 -12 9 -12 0 0 -13
-70 -17 -70 -4 -1 4 -14 57 -30 117 -19 69 -27 91 -23 60 3 -27 14 -79 24
-115 19 -68 18 -76 -3 -67 -28 10 -96 252 -99 355 -1 25 -3 30 -6 14 -8 -42
17 -187 47 -278 17 -48 30 -89 30 -91 0 -1 -10 -1 -22 0 -45 6 -101 228 -111
442 -2 36 -4 20 -5 -40 -2 -92 9 -263 24 -377 6 -47 6 -47 -23 -44 -15 2 -40
4 -54 5 -24 1 -27 6 -37 59 -6 31 -14 91 -18 133 l-7 77 34 7 c19 5 29 10 22
12 -6 2 -44 -7 -83 -21 l-71 -24 6 46 c3 26 8 65 10 87 4 35 3 36 -4 12 -5
-15 -13 -57 -16 -92 -7 -58 -11 -67 -41 -90 -31 -24 -34 -25 -34 -7 0 46 32
185 55 236 29 65 25 75 -6 15 -24 -48 -69 -217 -69 -260 0 -19 -13 -43 -37
-71 -21 -24 -29 -36 -18 -27 11 9 25 18 30 21 7 4 10 -88 11 -265 1 -290 11
-426 50 -670 13 -83 24 -155 24 -158 0 -4 24 -7 54 -8 44 -1 61 4 97 28 48 33
56 33 39 1 -14 -26 -6 -38 13 -21 15 12 148 11 141 -1 -2 -4 9 -6 26 -6 44 1
24 15 -45 31 -60 14 -60 14 -32 27 24 12 30 11 51 -9 21 -20 27 -21 45 -9 18
11 25 10 49 -3 15 -9 26 -20 25 -26 -1 -5 5 -10 13 -10 8 0 14 9 14 19 0 11 4
27 10 37 7 15 4 20 -15 29 -30 14 -34 55 -7 72 16 11 16 11 0 6 -13 -4 -18 0
-18 14 0 20 15 25 43 14 9 -3 12 -14 10 -29 -4 -17 -1 -23 12 -22 10 1 20 -4
23 -12 2 -8 1 -11 -4 -8 -5 3 -9 -6 -9 -19 0 -18 7 -25 28 -30 16 -3 45 -22
65 -42 20 -20 33 -31 28 -24 -4 6 -3 12 3 12 5 0 13 -4 16 -10 3 -5 11 -10 17
-10 6 0 5 7 -4 18 -26 29 -49 82 -42 94 4 6 3 9 -2 6 -5 -3 -15 0 -22 8 -7 8
-8 14 -2 14 17 0 12 60 -7 67 -14 5 -13 8 5 14 26 10 72 -27 72 -57 -1 -16 -3
-15 -16 6 l-15 25 6 -25 c4 -14 9 -38 13 -55 l6 -30 7 25 c6 23 7 22 8 -9 1
-48 22 -101 39 -101 10 0 12 6 7 23 -4 12 -7 32 -7 44 0 13 -4 20 -9 17 -5 -3
-9 -1 -9 5 0 5 5 13 10 16 6 3 10 38 10 76 0 51 -3 68 -12 63 -7 -4 -8 -3 -4
5 7 11 83 51 97 51 4 0 5 -8 2 -19 -3 -10 0 -22 6 -25 7 -5 8 -48 4 -131 -5
-104 -4 -125 8 -125 11 0 14 26 16 130 1 76 -2 130 -8 130 -5 0 -9 7 -9 16 0
14 2 14 22 0 18 -13 22 -24 19 -58 -2 -24 -7 -46 -12 -49 -6 -3 -9 -41 -7 -84
3 -72 5 -78 26 -81 12 -2 22 -2 22 0 0 3 6 35 14 73 8 37 22 131 31 208 12
107 22 152 42 193 22 45 25 62 21 115 -6 66 -36 148 -68 182 -17 18 -25 46
-45 145 l-5 25 16 -25 c10 -17 13 -19 9 -5 -3 10 -17 73 -31 138 -14 66 -37
151 -51 191 -26 73 -102 184 -165 241 l-33 30 26 -30 c48 -54 120 -159 136
-195 29 -69 76 -230 69 -237 -1 -2 -12 18 -24 45 -12 26 -37 65 -56 87 -39 45
-39 56 0 31 14 -10 28 -15 31 -13 5 6 -31 31 -80 56 -25 13 -35 29 -53 84 -13
38 -33 85 -46 105 -33 55 -78 116 -78 107z m94 -350 c7 -70 -1 -162 -15 -171
-5 -3 -9 32 -9 78 0 46 -4 100 -9 121 -8 32 -7 37 9 37 14 0 18 -12 24 -65z
m40 33 c14 -53 1 -188 -19 -195 -6 -2 -10 38 -10 107 0 75 4 110 11 110 7 0
14 -10 18 -22z m-571 -70 c3 -46 9 -104 13 -129 l6 -46 -37 -6 c-21 -3 -42 -4
-46 -2 -4 3 -10 36 -14 73 -3 37 -8 85 -11 107 -4 39 -3 42 33 63 21 12 41 22
44 22 3 0 9 -37 12 -82z m652 -3 c49 -74 85 -153 85 -188 0 -6 -13 2 -30 18
-16 15 -51 33 -77 40 -34 9 -48 17 -47 29 0 9 1 54 2 101 1 47 4 85 6 85 3 0
30 -38 61 -85z m-783 -57 c-12 -40 -30 -93 -42 -118 l-20 -45 5 95 c5 91 6 95
37 122 18 15 34 25 36 23 2 -2 -5 -36 -16 -77z m332 -99 c6 -13 29 -18 106
-24 55 -3 109 -3 121 0 14 5 25 2 30 -6 7 -11 13 -11 37 3 109 65 228 3 264
-137 7 -27 27 -68 45 -90 36 -42 63 -117 63 -174 0 -132 -115 -247 -315 -315
-80 -28 -197 -55 -235 -56 -3 0 -4 -21 -4 -47 1 -27 -2 -56 -8 -65 -5 -12 -5
-18 2 -18 5 0 10 -7 10 -15 0 -8 -5 -15 -11 -15 -5 0 -8 4 -4 9 12 20 -17 21
-42 1 l-27 -21 -37 37 c-33 32 -42 36 -72 30 -33 -6 -34 -5 -29 19 2 14 9 25
15 25 6 0 4 6 -5 12 -25 21 -30 48 -9 48 10 0 21 -7 25 -15 3 -8 13 -15 23
-15 13 0 15 2 5 9 -7 4 -12 13 -10 20 2 8 -30 23 -87 40 -49 15 -118 40 -152
56 -73 35 -68 21 -82 253 -13 223 12 311 101 362 36 21 56 25 121 25 42 0 77
3 77 7 0 5 12 8 26 8 24 0 26 3 21 28 -3 15 -8 56 -12 92 l-6 65 24 -60 c13
-33 27 -67 31 -76z m-318 -71 c-20 -16 -45 -46 -56 -66 l-19 -37 -1 30 c0 17
16 67 34 112 19 45 38 99 42 120 7 36 9 34 22 -46 l14 -83 -36 -30z m929 -575
c-2 -21 -7 -73 -11 -116 -3 -43 -8 -76 -10 -74 -3 2 -8 44 -13 93 -7 82 -7 91
12 112 11 12 22 22 24 22 2 0 1 -17 -2 -37z m-65 -43 c0 -5 -2 -10 -4 -10 -3
0 -8 5 -11 10 -3 6 -1 10 4 10 6 0 11 -4 11 -10z m-824 -50 c15 -9 19 -21 16
-48 -2 -21 1 -48 8 -62 10 -25 10 -25 5 3 -4 19 -2 26 5 22 17 -11 11 -54 -9
-65 -17 -9 -21 -4 -32 42 -12 45 -14 48 -21 27 -6 -20 -7 -19 -5 8 3 33 -12
41 -25 13 -4 -8 -5 2 -2 23 4 21 2 37 -3 37 -5 0 -10 6 -10 14 0 15 38 8 73
-14z m829 20 c3 -6 -1 -7 -9 -4 -18 7 -21 14 -7 14 6 0 13 -4 16 -10z m-161
-72 c7 -5 4 -8 -6 -8 -12 0 -18 7 -17 23 0 15 2 17 6 7 3 -8 11 -18 17 -22z
m-555 -28 c-2 -48 -18 -78 -27 -52 -2 7 -8 10 -13 6 -5 -3 -9 0 -9 5 0 6 5 11
10 11 6 0 10 5 10 11 0 5 -4 7 -10 4 -11 -7 -13 9 -4 43 4 13 14 22 25 22 17
0 19 -7 18 -50z m22 9 c-9 -22 -10 -22 -10 -3 -1 11 2 24 6 27 12 12 14 0 4
-24z m359 1 c0 -5 -2 -10 -4 -10 -3 0 -8 5 -11 10 -3 6 -1 10 4 10 6 0 11 -4
11 -10z m45 2 c20 -14 16 -34 -4 -27 -17 5 -19 2 -16 -16 4 -22 4 -22 -13 -5
-12 14 -14 20 -4 23 6 3 12 11 12 19 0 15 9 18 25 6z m302 -24 c-3 -7 -5 -2
-5 12 0 14 2 19 5 13 2 -7 2 -19 0 -25z m-177 12 c0 -5 -5 -10 -11 -10 -5 0
-7 5 -4 10 3 6 8 10 11 10 2 0 4 -4 4 -10z m-520 -25 c-7 -8 -17 -12 -23 -8
-6 4 -3 9 9 14 27 11 28 11 14 -6z m521 -22 c-12 -20 -14 -14 -5 12 4 9 9 14
11 11 3 -2 0 -13 -6 -23z m-502 -15 c-12 -42 -11 -61 1 -53 6 3 10 4 10 1 0
-2 3 -11 6 -20 4 -10 1 -16 -9 -16 -8 0 -18 7 -21 16 -8 21 -8 89 1 97 15 16
21 5 12 -25z m-179 7 c0 -8 -3 -15 -6 -15 -3 0 -12 7 -20 15 -14 13 -13 15 5
15 12 0 21 -6 21 -15z m857 -17 c-3 -7 -5 -2 -5 12 0 14 2 19 5 13 2 -7 2 -19
0 -25z m-710 -14 c-1 -43 -44 -84 -88 -84 -24 0 -29 4 -29 24 0 39 32 69 73
70 23 1 37 6 37 14 0 6 2 12 4 12 2 0 4 -16 3 -36z m378 17 c-3 -5 -1 -12 5
-16 6 -4 8 -11 4 -16 -9 -14 -23 -1 -19 19 5 23 4 22 11 22 3 0 3 -4 -1 -9z
m46 -11 c10 -6 26 -24 34 -40 13 -26 13 -30 1 -30 -15 0 -66 55 -66 71 0 12 7
11 31 -1z m-571 -14 c0 -11 -19 -15 -25 -6 -3 5 1 10 9 10 9 0 16 -2 16 -4z
m244 -23 c-20 -14 -36 -13 -41 4 -5 13 25 22 46 15 11 -4 10 -8 -5 -19z m-224
-3 c0 -5 -2 -10 -4 -10 -3 0 -8 5 -11 10 -3 6 -1 10 4 10 6 0 11 -4 11 -10z
m-24 -30 c0 -28 -13 -25 -18 4 -3 15 -1 23 6 20 7 -3 12 -13 12 -24z m444 9
c0 -5 -4 -9 -8 -9 -5 0 -9 7 -9 15 0 8 4 12 9 9 4 -3 8 -9 8 -15z"/>
<path d="M1460 970 c0 -5 5 -10 10 -10 6 0 10 -11 10 -25 0 -29 -34 -36 -44
-8 -13 34 -31 -7 -31 -72 0 -56 4 -68 31 -101 76 -94 184 -55 184 66 0 56 -35
130 -70 147 -30 15 -90 17 -90 3z m126 -155 c4 -16 0 -34 -10 -50 -32 -49
-126 -19 -126 40 l0 25 20 -20 c26 -26 46 -25 73 4 29 31 35 31 43 1z"/>
<path d="M932 909 c-43 -9 -49 -16 -28 -32 27 -20 10 -50 -24 -43 -23 4 -29 1
-34 -17 -18 -66 7 -142 55 -168 27 -14 102 -14 129 1 70 37 64 221 -8 248 -47
18 -56 19 -90 11z m40 -131 c-7 -7 -12 -8 -12 -2 0 14 12 26 19 19 2 -3 -1
-11 -7 -17z m86 3 c10 -6 11 -19 6 -46 -10 -53 -35 -75 -87 -75 -57 0 -87 27
-87 78 l1 37 15 -27 c24 -46 104 -32 104 17 0 26 22 33 48 16z"/>
<path d="M1604 645 c-14 -25 -24 -48 -21 -51 3 -3 17 17 31 45 33 63 26 67
-10 6z"/>
<path d="M1651 644 c-12 -26 -20 -48 -18 -51 3 -2 14 17 26 43 12 25 20 48 18
50 -2 2 -13 -17 -26 -42z"/>
<path d="M1562 645 c-6 -14 -10 -25 -8 -25 2 0 11 11 20 25 9 14 13 25 8 25
-5 0 -14 -11 -20 -25z"/>
<path d="M1700 651 c-5 -11 -15 -32 -21 -48 -15 -41 6 -15 25 30 16 39 14 50
-4 18z"/>
<path d="M1726 625 c-9 -26 -7 -32 5 -12 6 10 9 21 6 23 -2 3 -7 -2 -11 -11z"/>
<path d="M882 583 c-30 -44 -66 -109 -55 -98 15 14 85 125 79 125 -3 0 -13
-12 -24 -27z"/>
<path d="M968 578 c-28 -43 -40 -71 -29 -64 11 7 55 86 47 86 -2 0 -10 -10
-18 -22z"/>
<path d="M826 558 l-18 -33 21 25 c18 22 26 40 18 40 -1 0 -11 -15 -21 -32z"/>
<path d="M1001 563 c-10 -26 -10 -27 4 -9 8 11 15 23 15 28 0 15 -7 8 -19 -19z"/>
<path d="M905 538 l-16 -33 20 25 c20 24 26 40 16 40 -2 0 -12 -15 -20 -32z"/>
<path d="M1247 549 c-21 -5 -52 -16 -68 -25 -28 -14 -31 -19 -25 -52 7 -46 41
-80 86 -87 34 -5 34 -5 -5 8 -31 9 -44 21 -58 50 -11 21 -16 44 -14 52 3 7 31
21 61 31 48 15 60 16 98 4 24 -8 49 -12 57 -11 7 1 10 -2 6 -8 -3 -6 -3 -11 2
-11 4 0 14 -4 22 -9 17 -11 0 -46 -37 -79 -27 -22 -27 -23 -3 -14 30 11 61 66
61 109 0 29 -4 33 -37 42 -44 13 -93 13 -146 0z"/>
<path d="M1115 169 c41 -15 115 -27 110 -18 -3 4 -22 9 -42 12 -21 3 -51 8
-68 11 l-30 6 30 -11z"/>
<path d="M800 260 c0 -6 7 -10 15 -10 8 0 15 2 15 4 0 2 -7 6 -15 10 -8 3 -15
1 -15 -4z"/>
<path d="M1346 1447 c3 -10 9 -15 12 -12 3 3 0 11 -7 18 -10 9 -11 8 -5 -6z"/>
<path d="M331 344 c0 -11 3 -14 6 -6 3 7 2 16 -1 19 -3 4 -6 -2 -5 -13z"/>
<path d="M1546 65 c8 -37 14 -45 14 -19 0 10 -5 26 -10 34 -8 11 -9 7 -4 -15z"/>
<path d="M1350 43 c-8 -3 -26 -14 -39 -24 l-24 -19 29 4 c39 5 85 27 78 37 -6
10 -21 10 -44 2z"/>
</g>
</svg>
